<?xml version="1.0" encoding="UTF-8"?>
<svg width="40px" height="40px" viewBox="0 0 40 40" version="1.1" xmlns="http://www.w3.org/2000/svg" xmlns:xlink="http://www.w3.org/1999/xlink">
    <!-- Generator: Sketch 46.1 (44463) - http://www.bohemiancoding.com/sketch -->
    <title>UI Icons / IPMI</title>
    <desc>Created with Sketch.</desc>
    <defs></defs>
    <g id="Symbols" stroke="none" stroke-width="1" fill="none" fill-rule="evenodd">
        <g id="UI-Icons-/-IPMI">
            <path d="M33,24 L33,43 C33,44.1045695 32.1045695,45 31,45 L9,45 C7.8954305,45 7,44.1045695 7,43 L7,9 C7,7.8954305 7.8954305,7 9,7 L31,7 C32.1045695,7 33,7.8954305 33,9 L33,24 Z" id="Shape" stroke="#231F20" stroke-width="2" fill="#FCC238" stroke-linecap="round" stroke-linejoin="round" transform="translate(20.000000, 26.000000) rotate(-270.000000) translate(-20.000000, -26.000000) "></path>
            <rect id="Rectangle" stroke="#231F20" stroke-width="2" fill="#FCC238" stroke-linecap="round" stroke-linejoin="round" x="5" y="17" width="3" height="3"></rect>
            <rect id="Rectangle-Copy-3" stroke="#231F20" stroke-width="2" fill="#FFFFFF" stroke-linecap="round" stroke-linejoin="round" x="13" y="18" width="22" height="17"></rect>
            <rect id="Rectangle-Copy-2" stroke="#231F20" stroke-width="2" fill="#FCC238" stroke-linecap="round" stroke-linejoin="round" x="5" y="23" width="3" height="3"></rect>
            <rect id="Rectangle-20" fill="#231F20" x="13" y="21" width="22" height="2"></rect>
            <rect id="Rectangle-20-Copy" fill="#231F20" x="16" y="25" width="7" height="2"></rect>
            <rect id="Rectangle-20-Copy-2" fill="#231F20" x="30" y="25" width="2" height="2"></rect>
        </g>
    </g>
</svg>