<?xml version="1.0" encoding="UTF-8"?>
<svg width="40px" height="40px" viewBox="0 0 40 40" version="1.1" xmlns="http://www.w3.org/2000/svg" xmlns:xlink="http://www.w3.org/1999/xlink">
    <!-- Generator: Sketch 46.1 (44463) - http://www.bohemiancoding.com/sketch -->
    <title>UI Icons / PDF</title>
    <desc>Created with Sketch.</desc>
    <defs></defs>
    <g id="Symbols" stroke="none" stroke-width="1" fill="none" fill-rule="evenodd">
        <g id="UI-Icons-/-PDF">
            <path d="M20.8710982,14.368775 C20.8710982,14.368775 12.011901,1.94006405 17.8151236,1.04089413 C23.6183463,0.141724207 19.1139518,14.368775 19.1139518,14.368775 L14.0790397,25.2747808 C14.0790397,25.2747808 7.41341633,39.938039 3.55096349,35.5147711 C0.986754509,32.5782476 7.81037571,28.8963702 14.9766582,25.8204383 C18.9731686,24.1050449 23.0857401,22.6938054 25.7655631,21.9715582 C33.2506705,19.9542242 39.8134147,20.6024176 38.3431998,24.4014898 C36.872985,28.2005621 28.7765494,23.4403082 25.7655631,20.0985113 C22.7545768,16.7567144 20.8710982,14.368775 20.8710982,14.368775 Z" id="Path-7" fill="#FCC238"></path>
            <path d="M3.62,35.57 C-2.79,29.17 43,13.2 38,24.34 C33.68,34.15 7.24,1 18.28,1 C27.37,1 9.52,41.48 3.62,35.57 Z" id="Shape" stroke="#231F20" stroke-width="2"></path>
        </g>
    </g>
</svg>