<?xml version="1.0" encoding="UTF-8"?>
<svg width="40px" height="40px" viewBox="0 0 40 40" version="1.1" xmlns="http://www.w3.org/2000/svg" xmlns:xlink="http://www.w3.org/1999/xlink">
    <!-- Generator: Sketch 46.1 (44463) - http://www.bohemiancoding.com/sketch -->
    <title>UI Icons / Setting</title>
    <desc>Created with Sketch.</desc>
    <defs></defs>
    <g id="Symbols" stroke="none" stroke-width="1" fill="none" fill-rule="evenodd">
        <g id="UI-Icons-/-Setting">
            <path d="M37,14 L36,14 C35.4477153,14 35,14.4477153 35,15 C35,15.5522847 35.4477153,16 36,16 L37,16 C37.5522847,16 38,16.4477153 38,17 L38,37 C38,37.5522847 37.5522847,38 37,38 L3,38 C2.44771525,38 2,37.5522847 2,37 L2,17 C2,16.4477153 2.44771525,16 3,16 L18,16 C18.5522847,16 19,15.5522847 19,15 C19,14.4477153 18.5522847,14 18,14 L3,14 C1.34314575,14 4.4408921e-16,15.3431458 0,17 L0,37 C4.4408921e-16,38.6568542 1.34314575,40 3,40 L37,40 C38.6568542,40 40,38.6568542 40,37 L40,17 C40,15.3431458 38.6568542,14 37,14 Z" id="Shape" fill="#231F20" fill-rule="nonzero"></path>
            <circle id="Oval-10" fill="#FCC238" cx="27" cy="15" r="4"></circle>
            <circle id="Oval-10-Copy" fill="#FCC238" cx="18" cy="25" r="3"></circle>
            <path d="M20.58,17.63 C20.8047062,18.1659454 21.3513629,18.4939394 21.93,18.44 L22,18.44 L23.6,18.36 L23.57,20 C23.521798,20.427874 23.6561203,20.8562533 23.94,21.18 C24.221716,21.4438086 24.6041356,21.5722313 24.9879774,21.5319279 C25.3718192,21.4916245 25.7192237,21.2865703 25.94,20.97 L27,19.74 L28.07,20.93 C28.3458935,21.2752371 28.7583812,21.4833061 29.2,21.5 C29.5256682,21.5017336 29.8373223,21.3676499 30.06,21.13 C30.3306377,20.8186222 30.4640591,20.4111458 30.43,20 L30.35,18.4 L31.95,18.48 L32.08,18.48 C32.6586371,18.5339394 33.2052938,18.2059454 33.43,17.67 C33.6268204,17.0966481 33.4234438,16.4621134 32.93,16.11 L31.74,15 L32.93,13.93 C33.4234438,13.5778866 33.6268204,12.9433519 33.43,12.37 C33.2052938,11.8340546 32.6586371,11.5060606 32.08,11.56 L32,11.56 L30.4,11.64 L30.43,10 C30.478202,9.57212604 30.3438797,9.14374665 30.06,8.82 C29.778284,8.55619143 29.3958644,8.42776869 29.0120226,8.46807208 C28.6281808,8.50837546 28.2807763,8.71342973 28.06,9.03 L27,10.26 L25.93,9.07 C25.7092237,8.75342973 25.3618192,8.54837546 24.9779774,8.50807208 C24.5941356,8.46776869 24.211716,8.59619143 23.93,8.86 C23.6603626,9.1754528 23.5304309,9.58690303 23.57,10 L23.65,11.6 L22,11.57 L21.87,11.57 C21.2913629,11.5160606 20.7447062,11.8440546 20.52,12.38 C20.3231796,12.9533519 20.5265562,13.5878866 21.02,13.94 L22.26,15 L21.07,16.07 C20.580234,16.4248385 20.3810904,17.0588467 20.58,17.63 L20.58,17.63 Z M23.75,14 C24.2914573,13.9511472 24.7896957,13.6839759 25.13,13.26 C25.4714656,12.8467693 25.6556734,12.3260281 25.65,11.79 C26.4010916,12.5125851 27.5889084,12.5125851 28.34,11.79 C28.335933,12.3046185 28.5209773,12.8028148 28.86,13.19 C29.2018477,13.6153218 29.6978088,13.8884598 30.24,13.95 C29.88,13.95 29.67,14.45 29.67,14.95 C29.67,15.45 29.88,15.95 30.24,15.95 C29.6985427,15.9988528 29.2003043,16.2660241 28.86,16.69 C28.5185344,17.1032307 28.3343266,17.6239719 28.34,18.16 C27.5889084,17.4374149 26.4010916,17.4374149 25.65,18.16 C25.654067,17.6453815 25.4690227,17.1471852 25.13,16.76 C24.7905404,16.3369617 24.2986005,16.0640607 23.76,16 C24.12,16 24.33,15.5 24.33,15 C24.33,14.5 24.11,14 23.75,14 L23.75,14 Z M18,20.8 L17.34,20.07 C17.1192237,19.7534297 16.7718192,19.5483755 16.3879774,19.5080721 C16.0041356,19.4677687 15.621716,19.5961914 15.34,19.86 C15.0775276,20.1785781 14.9549141,20.589694 15,21 L15,22 L13.87,22 C13.2913629,21.9460606 12.7447062,22.2740546 12.52,22.81 C12.3231796,23.3833519 12.5265562,24.0178866 13.02,24.37 L13.75,25.03 L13.02,25.69 C12.5265562,26.0421134 12.3231796,26.6766481 12.52,27.25 C12.7447062,27.7859454 13.2913629,28.1139394 13.87,28.06 L15,28.06 L15,29.06 C14.951798,29.487874 15.0861203,29.9162533 15.37,30.24 C15.651716,30.5038086 16.0341356,30.6322313 16.4179774,30.5919279 C16.8018192,30.5516245 17.1492237,30.3465703 17.37,30.03 L18,29.2 L18.66,29.93 C18.9358935,30.2752371 19.3483812,30.4833061 19.79,30.5 C20.1156682,30.5017336 20.4273223,30.3676499 20.65,30.13 C20.9134527,29.8154944 21.0395568,29.4083582 21,29 L21,28 L22.13,28 C22.7086371,28.0539394 23.2552938,27.7259454 23.48,27.19 C23.6768204,26.6166481 23.4734438,25.9821134 22.98,25.63 L22.2,25 L22.93,24.34 C23.4234438,23.9878866 23.6268204,23.3533519 23.43,22.78 C23.1955547,22.2558421 22.6511945,21.9413229 22.08,22 L21,22 L21,21 C21.048202,20.572126 20.9138797,20.1437467 20.63,19.82 C20.348284,19.5561914 19.9658644,19.4277687 19.5820226,19.4680721 C19.1981808,19.5083755 18.8507763,19.7134297 18.63,20.03 L18,20.8 Z M19.48,23.45 C19.7492395,23.729385 20.098717,23.9181029 20.48,23.99 C20.0935443,24.6006612 20.0935443,25.3793388 20.48,25.99 C19.7408097,26.133344 19.1584493,26.7038997 19,27.44 C18.3893388,27.0535443 17.6106612,27.0535443 17,27.44 C16.844046,26.7190765 16.2809235,26.155954 15.56,26 C15.9464557,25.3893388 15.9464557,24.6106612 15.56,24 C16.2809235,23.844046 16.844046,23.2809235 17,22.56 C17.614035,22.9346345 18.385965,22.9346345 19,22.56 C19.0752319,22.8951176 19.241304,23.2030429 19.48,23.45 L19.48,23.45 Z" id="Shape" fill="#231F20" fill-rule="nonzero"></path>
        </g>
    </g>
</svg>