<?xml version="1.0" encoding="UTF-8"?>
<svg width="17px" height="14px" viewBox="0 0 17 14" version="1.1" xmlns="http://www.w3.org/2000/svg" xmlns:xlink="http://www.w3.org/1999/xlink">
    <!-- Generator: Sketch 40.3 (33839) - http://www.bohemiancoding.com/sketch -->
    <title>end</title>
    <desc>Created with Sketch.</desc>
    <defs></defs>
    <g id="Page-1" stroke="none" stroke-width="1" fill="none" fill-rule="evenodd">
        <g id="Artboard" transform="translate(-212.000000, -107.000000)">
            <g id="end" transform="translate(212.000000, 107.000000)">
                <path d="M6.05584071,8.88 C5.79686347,8.68592456 5.50803483,8.53507455 5.20061947,8.43333333 C4.88436578,8.32666667 4.56811209,8.23555556 4.25185841,8.16 C4.05141593,8.10666667 3.20287611,7.83333333 3.00911504,7.75333333 C2.83167025,7.68562092 2.67343368,7.57578631 2.54809735,7.43333333 C2.4319021,7.28807947 2.37254273,7.10565619 2.38106195,6.92 C2.37994649,6.80048088 2.40503058,6.68216329 2.45455752,6.57333333 C2.51074382,6.45624931 2.5958058,6.35531782 2.70176991,6.28 C2.83684272,6.1839909 2.98864661,6.11390833 3.14942478,6.07333333 C3.36865457,6.02520719 3.59345674,6.00726272 3.81756637,6.02 C4.08297087,6.03839208 4.34531911,6.08761362 4.59929204,6.16666667 C4.91331858,6.27333333 5.14048673,6.36666667 5.32756637,6.45333333 L6.54358407,5.29333333 C5.7097208,4.6444959 4.69365071,4.27159398 3.63716814,4.22666667 C3.18536496,4.22194732 2.73526049,4.28257729 2.30088496,4.40666667 C1.90370712,4.51132666 1.53278117,4.69751552 1.21181416,4.95333333 C0.905466802,5.21272746 0.653438893,5.52989879 0.470176991,5.88666667 C0.254819442,6.27004381 0.137764548,6.70058775 0.129424779,7.14 C0.127853917,7.50409909 0.207745842,7.86395791 0.363274336,8.19333333 C0.502591401,8.47055639 0.700987873,8.71402261 0.944557522,8.90666667 C1.18555897,9.10162303 1.45622603,9.25691303 1.74632743,9.36666667 C2.04699115,9.48666667 3.20287611,9.88 3.43672566,9.94 C3.65205159,9.99509722 3.8621884,10.0687058 4.06477876,10.16 C4.23224991,10.2352917 4.38236569,10.3442258 4.50575221,10.48 C4.63100111,10.635977 4.69086356,10.8342815 4.67278761,11.0333333 C4.60645145,11.6544392 4.06892714,12.1179049 3.44340708,12.0933333 C3.07746048,12.1040821 2.7121222,12.056828 2.3610177,11.9533333 C1.89028804,11.8304476 1.44009766,11.639539 1.02473451,11.3866667 L0.0559292035,12.6666667 C1.06132817,13.4458055 2.29734042,13.8701864 3.57035398,13.8733333 C4.81978435,13.8728138 5.97897046,13.2237894 6.63044248,12.16 C6.83467662,11.7451895 6.93987251,11.2888258 6.93778761,10.8266667 C6.94675,10.4224755 6.85733613,10.022145 6.67721239,9.66 C6.53140459,9.35674984 6.31902716,9.09015514 6.05584071,8.88 L6.05584071,8.88 Z" id="Shape" fill="#231F20"></path>
                <path d="M13.4454867,2.75333333 L13.4454867,0.753333333 C12.8727092,0.633007638 12.2810961,0.633007638 11.7083186,0.753333333 L11.7083186,2.75333333 L13.4454867,2.75333333 Z M15.3630531,4.85333333 L16.0311947,4.62666667 L16.6993363,4.40666667 C16.6727053,4.14681015 16.6212472,3.89008763 16.5456637,3.64 L16.4922124,3.46666667 C16.4054125,3.21930382 16.2958136,2.98050397 16.164823,2.75333333 L15.4966814,2.97333333 L14.8285398,3.2 L14.1136283,3.43333333 L13.4454867,3.65333333 L11.7083186,3.65333333 L11.040177,3.43333333 L10.3185841,3.2 L9.65044248,2.97333333 L8.98230088,2.75333333 C8.85034072,2.98465721 8.74071784,3.22797387 8.6549115,3.48 L8.60814159,3.62666667 C8.52977836,3.88094257 8.47608033,4.14214257 8.44778761,4.40666667 L9.1159292,4.62666667 L9.7840708,4.85333333 L10.4923009,5.08 L11.1604425,5.3 L10.7461947,5.87333333 L10.3052212,6.47333333 L9.87761062,7.06 L9.45668142,7.64 C9.63675823,7.83893372 9.83592372,8.01979656 10.0513274,8.18 L10.1715929,8.26666667 C10.3816137,8.41814756 10.6052894,8.5498249 10.8397345,8.66 L11.2606637,8.08 L11.6882743,7.49333333 L12.1292478,6.88666667 L12.5434956,6.31333333 L12.9577434,6.88666667 L13.3987168,7.49333333 L13.8263274,8.08 L14.2472566,8.66 C14.4811041,8.55129359 14.7047131,8.42188669 14.9153982,8.27333333 L15.0356637,8.18666667 C15.2510947,8.02649628 15.4502633,7.84563062 15.6303097,7.64666667 L15.2093805,7.06666667 L14.7817699,6.48 L14.3407965,5.88 L13.9265487,5.30666667 L14.5946903,5.08666667 L15.3630531,4.85333333 Z" id="Combined-Shape" fill="#FCB037"></path>
            </g>
        </g>
    </g>
</svg>