<?xml version="1.0" encoding="UTF-8"?>
<svg width="129px" height="14px" viewBox="0 0 129 14" version="1.1" xmlns="http://www.w3.org/2000/svg" xmlns:xlink="http://www.w3.org/1999/xlink">
    <!-- Generator: Sketch 40.3 (33839) - http://www.bohemiancoding.com/sketch -->
    <title>mid</title>
    <desc>Created with Sketch.</desc>
    <defs></defs>
    <g id="Page-1" stroke="none" stroke-width="1" fill="none" fill-rule="evenodd">
        <g id="Artboard" transform="translate(-82.000000, -107.000000)" fill="#231F20">
            <path d="M149.49115,115.88 C149.23211,115.686024 148.943298,115.535183 148.635929,115.433333 C148.319676,115.326667 148.003422,115.235556 147.687168,115.16 C147.486726,115.106667 146.638186,114.833333 146.444425,114.753333 C146.26698,114.685621 146.108743,114.575786 145.983407,114.433333 C145.867212,114.288079 145.807852,114.105656 145.816372,113.92 C145.815256,113.800481 145.84034,113.682163 145.889867,113.573333 C145.946299,113.456407 146.031313,113.355532 146.13708,113.28 C146.272152,113.183991 146.423956,113.113908 146.584735,113.073333 C146.803964,113.025207 147.028766,113.007263 147.252876,113.02 C147.518281,113.038392 147.780629,113.087614 148.034602,113.166667 C148.348628,113.273333 148.575796,113.366667 148.762876,113.453333 L149.978894,112.293333 C149.135037,111.640349 148.106339,111.269435 147.039071,111.233333 C146.587268,111.228614 146.137163,111.289244 145.702788,111.413333 C145.30561,111.517993 144.934684,111.704182 144.613717,111.96 C144.307496,112.219516 144.055489,112.53666 143.87208,112.893333 C143.656722,113.27671 143.539667,113.707254 143.531327,114.146667 C143.529757,114.510766 143.609648,114.870625 143.765177,115.2 C143.904311,115.477341 144.102738,115.720844 144.34646,115.913333 C144.587397,116.108384 144.858079,116.263683 145.14823,116.373333 C145.448894,116.493333 146.604779,116.886667 146.838628,116.946667 C147.053945,117.001796 147.264079,117.075403 147.466681,117.166667 C147.634153,117.241958 147.784268,117.350892 147.907655,117.486667 C148.032282,117.642969 148.092068,117.841019 148.07469,118.04 C148.008219,118.663776 147.466673,119.128185 146.838628,119.1 C146.472676,119.110862 146.10732,119.063605 145.756239,118.96 C145.285509,118.837114 144.835319,118.646206 144.419956,118.393333 L143.477876,119.666667 C144.483275,120.445805 145.719287,120.870186 146.992301,120.873333 C148.241731,120.872814 149.400917,120.223789 150.052389,119.16 C150.256624,118.74519 150.361819,118.288826 150.359735,117.826667 C150.368964,117.422449 150.279536,117.022056 150.099159,116.66 C149.957208,116.358081 149.749485,116.091598 149.49115,115.88 L149.49115,115.88 Z M115.22885,113.213333 L115.943761,111.333333 C115.655553,111.275107 115.362526,111.243861 115.068496,111.24 C114.064448,111.251725 113.115415,111.699634 112.469425,112.466667 L112.469425,111.606667 L110.364779,111.606667 L110.364779,120.493333 L112.476106,120.493333 L112.476106,114.026667 C112.997257,113.386667 113.919292,113.113333 115.22885,113.213333 Z M106.730088,118.473333 C105.94727,118.962439 105.022895,119.176007 104.104292,119.08 C103.732222,119.018079 103.378533,118.874639 103.068673,118.66 C102.792056,118.478881 102.562949,118.234278 102.400531,117.946667 C102.206144,117.544654 102.099129,117.106179 102.086504,116.66 L108.099779,116.66 L108.099779,115.913333 C108.112811,115.197419 108.011315,114.484012 107.799115,113.8 C107.662876,113.265284 107.414671,112.765425 107.070841,112.333333 C106.722261,111.959375 106.28937,111.673704 105.808053,111.5 C105.293239,111.318392 104.750529,111.22814 104.204513,111.233333 C103.653114,111.232473 103.106609,111.336555 102.594292,111.54 C102.073265,111.745639 101.601875,112.059205 101.211239,112.46 C100.786133,112.905671 100.458497,113.434634 100.249115,114.013333 C99.9960514,114.714128 99.8737683,115.455244 99.8883186,116.2 C99.8734537,116.929795 100.005219,117.655169 100.275841,118.333333 C100.504395,118.888914 100.858874,119.384089 101.31146,119.78 C101.754582,120.155978 102.274397,120.431236 102.834823,120.586667 C103.434655,120.756554 104.055368,120.841826 104.678894,120.84 C105.766051,120.774334 106.811662,120.399578 107.692212,119.76 L106.730088,118.473333 Z M102.453982,114.193333 C102.542883,113.963662 102.671818,113.751502 102.834823,113.566667 C103.171305,113.184208 103.66129,112.971535 104.171106,112.986667 C104.426846,112.980203 104.680634,113.032674 104.912743,113.14 C105.11863,113.240768 105.29906,113.386616 105.440575,113.566667 C105.585649,113.75381 105.694416,113.966343 105.761283,114.193333 C105.840926,114.511836 105.883522,114.838434 105.88823,115.166667 L102.273584,115.166667 C102.304857,114.836496 102.369779,114.510365 102.467345,114.193333 L102.453982,114.193333 Z M183.907124,118.926667 C183.568448,119.028249 183.218211,119.086493 182.864823,119.1 C182.458976,119.155105 182.053094,118.999148 181.789115,118.686667 C181.671288,118.456179 181.618186,118.198166 181.635442,117.94 L181.635442,113.313333 L184.067478,113.313333 L184.067478,111.606667 L181.635442,111.606667 L181.635442,109.553333 C180.895701,109.684625 180.189422,109.961075 179.557522,110.366667 L179.557522,111.606667 L178.154425,111.606667 L178.154425,113.313333 L179.557522,113.313333 L179.557522,118.186667 C179.540165,118.627203 179.610565,119.066798 179.764646,119.48 C179.961299,119.927125 180.31216,120.289039 180.753496,120.5 C181.316058,120.720372 181.913174,120.839983 182.517389,120.853333 L182.717832,120.853333 C182.965951,120.846758 183.213529,120.826728 183.459469,120.793333 C183.668828,120.762873 183.876285,120.720583 184.080841,120.666667 L184.508451,120.533333 L183.907124,118.926667 Z M99.3070354,109.833333 C98.8573413,109.66447 98.3882163,109.552487 97.9106195,109.5 C97.6864983,109.478077 97.4602555,109.496137 97.2424779,109.553333 C97.0576889,109.608466 96.8898954,109.709378 96.7547345,109.846667 C96.615321,109.996863 96.5124418,110.177075 96.4540708,110.373333 C96.3808927,110.631249 96.3471058,110.898699 96.3538496,111.166667 L96.3538496,111.606667 L98.7792035,111.606667 L98.7792035,113.313333 L96.3471681,113.313333 L96.3471681,120.493333 L94.2358407,120.493333 L94.2358407,113.313333 L92.8394248,113.313333 L92.8394248,111.606667 L94.2358407,111.606667 L94.2358407,111.28 C94.2255818,110.73046 94.3161581,110.183684 94.5030973,109.666667 C94.8044259,108.810236 95.4927567,108.145659 96.360531,107.873333 C96.6688344,107.748333 96.9967592,107.67838 97.3293363,107.666667 C98.2197471,107.649652 99.1035492,107.822386 99.9217257,108.173333 L99.3070354,109.833333 Z M84.9019027,112.466667 C85.5260755,112.023528 86.1984938,111.652278 86.9063274,111.36 C87.2295399,111.265747 87.5651766,111.220795 87.9018584,111.226667 C88.2282392,111.224484 88.5536397,111.26255 88.8706637,111.34 C89.173894,111.414797 89.4627942,111.53866 89.725885,111.706667 C89.9865142,111.88753 90.2127635,112.113279 90.3940265,112.373333 C90.6025599,112.655292 90.7607798,112.971033 90.8617257,113.306667 C90.9277511,113.523735 90.970309,113.747229 90.9886726,113.973333 L90.9886726,114.793333 L90.9886726,120.526667 L88.9307965,120.526667 L88.9307965,115 C88.9423919,114.777928 88.9423919,114.555405 88.9307965,114.333333 C88.9171757,114.172021 88.8835105,114.013024 88.8305752,113.86 C88.7009552,113.566091 88.4810004,113.320939 88.2025221,113.16 C87.9384256,113.033969 87.6459595,112.978821 87.3539823,113 C86.8778485,112.997011 86.4072421,113.101866 85.9776106,113.306667 C85.5866758,113.496018 85.2281482,113.745758 84.9152655,114.046667 L84.9152655,120.5 L82.7972566,120.5 L82.7972566,111.606667 L84.9019027,111.606667 L84.9019027,112.466667 Z M119.718761,112.466667 C120.342934,112.023528 121.015352,111.652278 121.723186,111.36 C122.061395,111.26097 122.413179,111.215969 122.765487,111.226667 C123.091868,111.224484 123.417268,111.26255 123.734292,111.34 C124.037561,111.414683 124.326479,111.538553 124.589513,111.706667 C124.850143,111.88753 125.076392,112.113279 125.257655,112.373333 C125.466188,112.655292 125.624408,112.971033 125.725354,113.306667 C125.79128,113.523759 125.833836,113.747243 125.852301,113.973333 L125.852301,114.793333 L125.852301,120.526667 L123.747655,120.526667 L123.747655,115 C123.759262,114.777929 123.759262,114.555405 123.747655,114.333333 C123.733566,114.17209 123.699913,114.01315 123.647434,113.86 C123.517421,113.566343 123.297564,113.3213 123.019381,113.16 C122.75128,113.031661 122.453898,112.976456 122.157478,113 C121.675113,112.991878 121.197334,113.094522 120.761062,113.3 C120.370127,113.489351 120.0116,113.739091 119.698717,114.04 L119.698717,120.493333 L117.614115,120.493333 L117.614115,111.606667 L119.718761,111.606667 L119.718761,112.466667 Z M204.13177,112.466667 C204.755943,112.023528 205.428361,111.652278 206.136195,111.36 C206.459407,111.265747 206.795044,111.220795 207.131726,111.226667 C207.458106,111.224484 207.783507,111.26255 208.100531,111.34 C208.4038,111.414683 208.692718,111.538553 208.955752,111.706667 C209.216382,111.88753 209.442631,112.113279 209.623894,112.373333 C209.8322,112.655431 209.990399,112.971131 210.091593,113.306667 C210.157131,113.523854 210.199679,113.747297 210.21854,113.973333 L210.21854,114.793333 L210.21854,120.526667 L208.100531,120.526667 L208.100531,115 C208.112311,114.777933 208.112311,114.5554 208.100531,114.333333 C208.086842,114.172031 208.053179,114.013043 208.00031,113.86 C207.87069,113.566091 207.650735,113.320939 207.372257,113.16 C207.122235,113.041744 206.846859,112.98679 206.570487,113 C206.094353,112.997011 205.623747,113.101866 205.194115,113.306667 C204.80318,113.496018 204.444653,113.745758 204.13177,114.046667 L204.13177,120.5 L202.027124,120.5 L202.027124,111.606667 L204.13177,111.606667 L204.13177,112.466667 Z M136.375531,114.08 C136.179162,113.513585 135.867518,112.993812 135.460177,112.553333 C135.070987,112.127016 134.591745,111.792287 134.05708,111.573333 C133.462884,111.334474 132.82681,111.216606 132.186283,111.226667 C131.556677,111.217632 130.931725,111.335544 130.348894,111.573333 C129.815077,111.793833 129.336152,112.128341 128.945796,112.553333 C128.567469,113.001089 128.283426,113.520308 128.110619,114.08 C127.89228,114.72389 127.786069,115.400334 127.796593,116.08 C127.794436,116.737256 127.900524,117.390401 128.110619,118.013333 C128.297187,118.574913 128.597372,119.092271 128.992566,119.533333 C129.38131,119.960157 129.860675,120.294971 130.395664,120.513333 C130.98986,120.752193 131.625934,120.87006 132.26646,120.86 C132.896067,120.869035 133.521019,120.751123 134.10385,120.513333 C134.621186,120.287541 135.083767,119.953308 135.460177,119.533333 C135.857303,119.09253 136.159728,118.575231 136.348805,118.013333 C136.56378,117.380113 136.66995,116.715193 136.662832,116.046667 C136.677301,115.379733 136.580202,114.715061 136.375531,114.08 L136.375531,114.08 Z M134.324336,117.366667 C134.231747,117.715738 134.072985,118.043876 133.856637,118.333333 C133.666705,118.579437 133.421935,118.778016 133.141726,118.913333 C132.858034,119.048126 132.547251,119.11653 132.233053,119.113333 C131.916701,119.116609 131.603728,119.048226 131.317699,118.913333 C131.03749,118.778016 130.792719,118.579437 130.602788,118.333333 C130.37831,118.046104 130.212589,117.717659 130.115044,117.366667 C129.995194,116.93259 129.938932,116.483491 129.948009,116.033333 C129.938932,115.583176 129.995194,115.134077 130.115044,114.7 C130.209778,114.353772 130.368389,114.028207 130.582743,113.74 C130.770456,113.491751 131.015793,113.292712 131.297655,113.16 C131.589198,113.038734 131.904233,112.984066 132.21969,113 C132.535263,112.99731 132.847631,113.063286 133.135044,113.193333 C133.419333,113.325133 133.667045,113.524239 133.856637,113.773333 C134.070992,114.061541 134.229603,114.387105 134.324336,114.733333 C134.444187,115.16741 134.500448,115.616509 134.491372,116.066667 C134.49726,116.505683 134.441027,116.943331 134.324336,117.366667 L134.324336,117.366667 Z M160.756018,114.08 C160.56893,113.518653 160.268803,113.001396 159.874071,112.56 C159.484881,112.133683 159.005639,111.798954 158.470973,111.58 C157.876777,111.34114 157.240703,111.223273 156.600177,111.233333 C155.970571,111.224298 155.345618,111.34221 154.762788,111.58 C154.228971,111.8005 153.750046,112.135007 153.35969,112.56 C152.96287,113.001026 152.660484,113.518258 152.471062,114.08 C152.252722,114.72389 152.146511,115.400334 152.157035,116.08 C152.149032,116.748057 152.252909,117.412757 152.464381,118.046667 C152.650948,118.608247 152.951133,119.125604 153.346327,119.566667 C153.735071,119.99349 154.214436,120.328305 154.749425,120.546667 C155.343621,120.785526 155.979695,120.903394 156.620221,120.893333 C157.249828,120.902368 157.87478,120.784456 158.457611,120.546667 C158.991638,120.326549 159.470641,119.991987 159.860708,119.566667 C160.257528,119.12564 160.559914,118.608408 160.749336,118.046667 C160.964311,117.413446 161.070481,116.748527 161.063363,116.08 C161.075124,115.40078 160.971198,114.724499 160.756018,114.08 L160.756018,114.08 Z M158.711504,117.366667 C158.617487,117.711119 158.458777,118.034626 158.243805,118.32 C158.055773,118.565299 157.813364,118.763818 157.535575,118.9 C157.251884,119.034793 156.9411,119.103197 156.626903,119.1 C156.310575,119.103045 155.997653,119.034673 155.711549,118.9 C155.428919,118.765555 155.181785,118.566914 154.989956,118.32 C154.771624,118.035763 154.610531,117.712024 154.515575,117.366667 C154.395725,116.93259 154.339463,116.483491 154.34854,116.033333 C154.339463,115.583176 154.395725,115.134077 154.515575,114.7 C154.610162,114.353717 154.768785,114.028126 154.983274,113.74 C155.17118,113.491936 155.416466,113.292938 155.698186,113.16 C155.983551,113.041647 156.291415,112.987036 156.600177,113 C156.91575,112.99731 157.228118,113.063286 157.515531,113.193333 C157.799964,113.324902 158.047728,113.524049 158.237124,113.773333 C158.451613,114.061459 158.610237,114.38705 158.704823,114.733333 C158.824673,115.16741 158.880935,115.616509 158.871858,116.066667 C158.877747,116.505683 158.821514,116.943331 158.704823,117.366667 L158.711504,117.366667 Z M199.701991,114.08 C199.514904,113.518653 199.214777,113.001396 198.820044,112.56 C198.430707,112.13385 197.951505,111.799149 197.416947,111.58 C196.822751,111.34114 196.186677,111.223273 195.54615,111.233333 C194.916544,111.224298 194.291592,111.34221 193.708761,111.58 C193.175048,111.80069 192.696162,112.13517 192.305664,112.56 C191.908843,113.001026 191.606457,113.518258 191.417035,114.08 C191.200836,114.724253 191.096883,115.40071 191.10969,116.08 C191.101687,116.748057 191.205564,117.412757 191.417035,118.046667 C191.603777,118.608169 191.903943,119.125492 192.298982,119.566667 C192.687726,119.99349 193.16709,120.328305 193.70208,120.546667 C194.296276,120.785526 194.93235,120.903394 195.572876,120.893333 C196.202483,120.902368 196.827435,120.784456 197.410265,120.546667 C197.944398,120.326741 198.423441,119.992152 198.813363,119.566667 C199.210183,119.12564 199.512569,118.608408 199.701991,118.046667 C199.914447,117.412996 200.018351,116.748129 200.009336,116.08 C200.021097,115.40078 199.917172,114.724499 199.701991,114.08 L199.701991,114.08 Z M197.657478,117.366667 C197.563157,117.711004 197.404474,118.034457 197.189779,118.32 C197.001747,118.565299 196.759338,118.763818 196.481549,118.9 C196.197857,119.034793 195.887074,119.103197 195.572876,119.1 C195.256524,119.103276 194.943551,119.034893 194.657522,118.9 C194.374892,118.765555 194.127758,118.566914 193.935929,118.32 C193.717598,118.035763 193.556505,117.712024 193.461549,117.366667 C193.341698,116.93259 193.285437,116.483491 193.294513,116.033333 C193.285437,115.583176 193.341698,115.134077 193.461549,114.7 C193.556135,114.353717 193.714759,114.028126 193.929248,113.74 C194.117153,113.491936 194.36244,113.292938 194.644159,113.16 C194.929524,113.041647 195.237389,112.987036 195.54615,113 C195.861723,112.99731 196.174091,113.063286 196.461504,113.193333 C196.745793,113.325133 196.993505,113.524239 197.183097,113.773333 C197.397318,114.061622 197.555916,114.38716 197.650796,114.733333 C197.770647,115.16741 197.826908,115.616509 197.817832,116.066667 C197.82372,116.505683 197.767487,116.943331 197.650796,117.366667 L197.657478,117.366667 Z M174.285885,111.606667 L174.285885,116.94 C174.290618,117.203812 174.26823,117.467412 174.219071,117.726667 C174.180733,117.927472 174.11083,118.120971 174.011947,118.3 C173.858956,118.5691 173.625293,118.783595 173.343805,118.913333 C172.667638,119.179624 171.915327,119.179624 171.239159,118.913333 C170.957418,118.783974 170.723651,118.569383 170.571018,118.3 C170.46981,118.121374 170.397644,117.927857 170.357212,117.726667 C170.308192,117.467393 170.285805,117.203807 170.290398,116.94 L170.290398,111.606667 L168.172389,111.606667 L168.172389,117.12 C168.169255,117.496702 168.20961,117.872511 168.292655,118.24 C168.366455,118.562846 168.488055,118.872917 168.653451,119.16 C168.962222,119.695982 169.428742,120.124233 169.989735,120.386667 C171.44482,121.019214 173.098057,121.019214 174.553142,120.386667 C175.114134,120.124233 175.580654,119.695982 175.889425,119.16 C176.055367,118.873179 176.177,118.563023 176.250221,118.24 C176.333384,117.872531 176.37374,117.496708 176.370487,117.12 L176.370487,111.606667 L174.285885,111.606667 Z M186.746726,111.606667 L188.858053,111.606667 L188.858053,120.5 L186.746726,120.5 L186.746726,111.606667 Z M188.858053,107.753333 C188.158807,107.640654 187.445971,107.640654 186.746726,107.753333 L186.746726,109.753333 L188.858053,109.753333 L188.858053,107.753333 Z M165.459735,107.753333 C164.760489,107.640654 164.047653,107.640654 163.348407,107.753333 L163.348407,120.493333 L165.459735,120.493333 L165.459735,107.753333 Z" id="mid"></path>
        </g>
    </g>
</svg>