<?xml version="1.0" encoding="UTF-8"?>
<svg width="40px" height="40px" viewBox="0 0 40 40" version="1.1" xmlns="http://www.w3.org/2000/svg" xmlns:xlink="http://www.w3.org/1999/xlink">
    <!-- Generator: Sketch 46.1 (44463) - http://www.bohemiancoding.com/sketch -->
    <title>UI Icons / Care</title>
    <desc>Created with Sketch.</desc>
    <defs></defs>
    <g id="Symbols" stroke="none" stroke-width="1" fill="none" fill-rule="evenodd">
        <g id="UI-Icons-/-Care">
            <path d="M36,27 C35.7790506,27.0006878 35.5645498,27.0745323 35.39,27.21 C33.7607265,28.5224415 31.85157,29.4428055 29.81,29.9 L29.81,29.82 C29.81,28.1300087 28.4399913,26.76 26.75,26.76 L21.65,26.76 C19.7302169,25.0766179 17.2912445,24.1024408 14.74,24 L8.87,24 L8.87,23 C8.87,22.4477153 8.42228475,22 7.87,22 L1,22 C0.44771525,22 0,22.4477153 0,23 L0,36.28 C0,36.8322847 0.44771525,37.28 1,37.28 L7.87,37.28 C8.42228475,37.28 8.87,36.8322847 8.87,36.28 L8.87,35.77 C19.2356783,41.7704768 32.4386184,39.2101135 39.81,29.77 C39.9767573,29.5504928 40.045505,29.2718836 40,29 C40,28.67 39.57,27 36,27 Z M6.87,35.28 L2,35.28 L2,24 L6.87,24 L6.87,35.28 Z M8.87,33.41 L8.87,26 L14.74,26 C16.9055466,26.124696 18.9615171,26.9937144 20.56,28.46 C20.7462606,28.6447442 20.9976601,28.7488954 21.26,28.75 L26.76,28.75 C27.3454218,28.75 27.82,29.2245782 27.82,29.81 C27.82,30.3954218 27.3454218,30.87 26.76,30.87 L17.14,30.87 C16.5877153,30.87 16.14,31.3177153 16.14,31.87 C16.14,32.4222847 16.5877153,32.87 17.14,32.87 L26.76,32.87 C27.5643205,32.8799644 28.3389503,32.5665095 28.91,32 L29,32 C29.14,32 32.32,32 36.32,29 C36.774699,29.0020496 37.2264735,29.07285 37.66,29.21 C33.4992311,34.1617152 27.3577097,37.0145745 20.89,37 C16.6054538,36.9994578 12.434193,35.7515557 8.87,33.41 Z" id="Shape" fill="#231F20" fill-rule="nonzero"></path>
            <rect id="Rectangle-path-Copy" stroke="#231F20" stroke-width="2" fill="#FCC238" stroke-linecap="round" stroke-linejoin="round" x="1" y="8" width="38" height="10" rx="2"></rect>
            <rect id="Rectangle-path-Copy-2" fill="#231F20" fill-rule="nonzero" x="4" y="11" width="15" height="2"></rect>
            <rect id="Rectangle-path-Copy-3" fill="#231F20" fill-rule="nonzero" x="21" y="11" width="4" height="2"></rect>
        </g>
    </g>
</svg>