<?xml version="1.0" encoding="UTF-8"?>
<svg width="40px" height="40px" viewBox="0 0 40 40" version="1.1" xmlns="http://www.w3.org/2000/svg" xmlns:xlink="http://www.w3.org/1999/xlink">
    <!-- Generator: Sketch 46.1 (44463) - http://www.bohemiancoding.com/sketch -->
    <title>UI Icons / Copy</title>
    <desc>Created with Sketch.</desc>
    <defs></defs>
    <g id="Symbols" stroke="none" stroke-width="1" fill="none" fill-rule="evenodd">
        <g id="UI-Icons-/-Copy">
            <path d="M11,11.1201172 L17.1196289,5 L29.0066348,5 C30.6598248,5 32,6.34731857 32,8.00001915 L32,31.9999809 C32,33.6568457 30.6544098,35 28.991212,35 L14.008788,35 C12.3470803,35 11,33.6476933 11,31.999776 L11,11.1201172 Z" id="Rectangle-14-Copy" fill="#FFFFFF"></path>
            <path d="M5,8.12011719 L11.1196289,2 L23.0066348,2 C24.6598248,2 26,3.34731857 26,5.00001915 L26,28.9999809 C26,30.6568457 24.6544098,32 22.991212,32 L8.00878799,32 C6.34708027,32 5,30.6476933 5,28.999776 L5,8.12011719 Z" id="Rectangle-14-Copy-2" fill="#FFFFFF"></path>
            <path d="M18,15 L24,9 L36.87,9 C37.4349111,9 37.976685,9.22441007 38.3761374,9.62386256 C38.7755899,10.023315 39,10.5650889 39,11.13 L39,36.87 C39,37.4349111 38.7755899,37.976685 38.3761374,38.3761374 C37.976685,38.7755899 37.4349111,39 36.87,39 L20.13,39 C19.5650889,39 19.023315,38.7755899 18.6238626,38.3761374 C18.2244101,37.976685 18,37.4349111 18,36.87 L18,15 Z" id="Shape" stroke="#231F20" stroke-width="2" fill="#FCC238" stroke-linecap="round" stroke-linejoin="round"></path>
            <path d="M16.9882812,35 L13.13,35 C12.5650889,35 12.023315,34.7755899 11.6238626,34.3761374 C11.2244101,33.976685 11,33.4349111 11,32.87 L11,11 L17,5 L29.87,5 C30.4349111,5 30.976685,5.22441007 31.3761374,5.62386256 C31.7755899,6.02331504 32,6.56508888 32,7.13 L32,8.96044922" id="Shape-Copy" stroke="#231F20" stroke-width="2" stroke-linecap="round" stroke-linejoin="round"></path>
            <path d="M10.9882812,31 L7.13,31 C6.56508888,31 6.02331504,30.7755899 5.62386256,30.3761374 C5.22441007,29.976685 5,29.4349111 5,28.87 L5,7 L11,1 L23.87,1 C24.4349111,1 24.976685,1.22441007 25.3761374,1.62386256 C25.7755899,2.02331504 26,2.56508888 26,3.13 L26,4.96044922" id="Shape-Copy-2" stroke="#231F20" stroke-width="2" stroke-linecap="round" stroke-linejoin="round"></path>
        </g>
    </g>
</svg>