<?xml version="1.0" encoding="UTF-8"?>
<svg width="40px" height="40px" viewBox="0 0 40 40" version="1.1" xmlns="http://www.w3.org/2000/svg" xmlns:xlink="http://www.w3.org/1999/xlink">
    <!-- Generator: Sketch 46.1 (44463) - http://www.bohemiancoding.com/sketch -->
    <title>UI Icons / Monitoring 2 White</title>
    <desc>Created with Sketch.</desc>
    <defs></defs>
    <g id="Symbols" stroke="none" stroke-width="1" fill="none" fill-rule="evenodd">
        <g id="UI-Icons-/-Monitoring-2-White">
            <rect id="Rectangle" x="7" y="1" width="26" height="38"></rect>
            <circle id="Oval-2" cx="7" cy="28" r="2"></circle>
            <circle id="Oval-2-Copy" cx="15" cy="28" r="2"></circle>
            <circle id="Oval-2-Copy-2" fill="#FFFFFF" cx="33" cy="20" r="2"></circle>
            <circle id="Oval-2-Copy-3" cx="22" cy="20" r="5"></circle>
            <path d="M22,25 C24.7614237,25 27,22.7614237 27,20 C27,17.2385763 24.7614237,15 22,15 C19.2385763,15 17,17.2385763 17,20 C17,22.7614237 19.2385763,25 22,25 Z" id="Oval" stroke="#FFFFFF" stroke-width="2" stroke-linecap="round" stroke-linejoin="round"></path>
            <path d="M28.0299092,13.3185698 C26.4341067,11.8774684 24.3195252,11 22,11 C17.0294373,11 13,15.0294373 13,20" id="Oval-Copy" stroke="#FFFFFF" stroke-width="2" stroke-linecap="round" stroke-linejoin="round"></path>
            <path d="M33,22 C34.1045695,22 35,21.1045695 35,20 C35,18.8954305 34.1045695,18 33,18 C31.8954305,18 31,18.8954305 31,20 C31,21.1045695 31.8954305,22 33,22 Z" id="Oval" stroke="#FFFFFF" stroke-width="2" stroke-linecap="round" stroke-linejoin="round"></path>
            <path d="M15,30 C16.1045695,30 17,29.1045695 17,28 C17,26.8954305 16.1045695,26 15,26 C13.8954305,26 13,26.8954305 13,28 C13,29.1045695 13.8954305,30 15,30 Z" id="Oval" stroke="#FFFFFF" stroke-width="2" stroke-linecap="round" stroke-linejoin="round"></path>
            <path d="M7,30 C8.1045695,30 9,29.1045695 9,28 C9,26.8954305 8.1045695,26 7,26 C5.8954305,26 5,26.8954305 5,28 C5,29.1045695 5.8954305,30 7,30 Z" id="Oval" stroke="#FFFFFF" stroke-width="2" stroke-linecap="round" stroke-linejoin="round"></path>
            <path d="M18.9893799,24.0437012 L17.0358887,26.0194092" id="Shape" stroke="#FFFFFF" stroke-width="2" stroke-linecap="round" stroke-linejoin="round"></path>
            <path d="M28,20 L31,20" id="Shape" stroke="#FFFFFF" stroke-width="2" stroke-linecap="round" stroke-linejoin="round"></path>
            <path d="M9,28 L12,28" id="Shape" stroke="#FFFFFF" stroke-width="2" stroke-linecap="round" stroke-linejoin="round"></path>
            <path d="M7,22.0495605 L7,3 C7,1.8954305 7.8954305,1 9,1 L31,1 C32.1045695,1 33,1.8954305 33,3 L33,14.0612793" id="Shape" stroke="#FFFFFF" stroke-width="2" stroke-linecap="round" stroke-linejoin="round"></path>
            <path d="M33,26 L33,37 C33,38.1045695 32.1045695,39 31,39 L9,39 C7.8954305,39 7,38.1045695 7,37 L7,34.0441895" id="Shape" stroke="#FFFFFF" stroke-width="2" stroke-linecap="round" stroke-linejoin="round"></path>
        </g>
    </g>
</svg>